<svg data-bbox="36 29.5 128 141" viewBox="0 0 200 200" height="200" width="200" xmlns="http://www.w3.org/2000/svg" data-type="shape">
    <g>
        <path d="M143.688 35.548C131.96 31.648 116.444 29.5 100 29.5s-31.96 2.148-43.688 6.048C39.523 41.129 36 48.364 36 53.45v93.1c0 15.724 32.196 23.95 64 23.95s64-8.227 64-23.95v-93.1c0-5.086-3.523-12.321-20.312-17.902zM156 100c0 2.493-3.866 6.691-14.764 10.32-10.903 3.631-25.548 5.63-41.236 5.63s-30.333-2-41.236-5.63C47.866 106.691 44 102.493 44 100V65.641c2.97 1.99 6.966 3.935 12.312 5.712C68.04 75.252 83.556 77.4 100 77.4s31.96-2.147 43.688-6.047c5.345-1.777 9.341-3.722 12.312-5.712V100zm-56-62.5c34.185 0 56 9.447 56 15.95S134.185 69.4 100 69.4s-56-9.446-56-15.95S65.815 37.5 100 37.5zm41.236 119.37c-10.903 3.631-25.548 5.63-41.236 5.63s-30.333-2-41.236-5.63C47.866 153.241 44 149.042 44 146.55v-34.33c11.521 7.735 33.849 11.73 56 11.73s44.479-3.995 56-11.73v34.33c0 2.492-3.866 6.691-14.764 10.32z" fill="#FFFFFF"></path>
    </g>
</svg>
